<?xml version="1.0" encoding="UTF-8"?>
<svg id="Layer_2" data-name="Layer 2" xmlns="http://www.w3.org/2000/svg" viewBox="0 0 1921.67 376.62">
  <defs>
    <style>
      .cls-1 {
        fill: #fff;
      }

      .cls-2 {
        fill: #4dbecd;
      }

      .cls-3 {
        fill: #009ca6;
      }
    </style>
  </defs>
  <g id="ondas-HOME">
    <path class="cls-2" d="M1921.4,96.11c-71.27-22.4-171.52-75.18-340.45-84.14-152.11-8.07-400.57,49.46-536.36,67.04-100.87,13.06-253.44,24.69-348.99,14.02C535.71,75.17,484.52,6.98,331.76,.52,165.45-6.51,77.19,59.41,.07,62.8c-.41,13.16,1.24,309.86,1.34,313.81,17.22,.02,1904.89-3.06,1920-3.11,0,0,.58-245.1,0-277.38h-.01Z"/>
    <path class="cls-3" d="M1921.4,188.39c-95.41,4.1-389.25-98.2-587.13-91.97-307.6,9.69-559.02,132.25-734.84,138.69-258.52,9.47-263.43-44.76-480.72-71.53-66.46-8.19-107.68,4.28-117.31,10.22v202.82H1921.4V188.4h0Z"/>
    <path class="cls-1" d="M.06,171.15c8.28-4.74,19.68-7.55,29.76-9.56,30.38-5.72,61.72-5.29,92.25-1.53,60.79,6.92,121.04,19.62,179.87,36.42,19.57,5.37,39.1,10.84,58.82,15.49,59.02,14.33,119.8,19.04,180.43,19.13,40.45,.04,80.88-.58,120.94-7.09,20.01-3.03,39.9-6.88,59.69-11.17,158.49-36.32,314.01-88.06,476-108.02,50.49-6.49,101.48-10.83,152.41-11.27,71.41,.23,142.31,11.46,212.28,24.7,100,18.73,198.18,46.05,298.32,63.96,20.02,3.22,40.23,6.24,60.55,5.69l.04,1h0c-20.41,.7-40.71-2.17-60.82-5.26-20.11-3.21-40.09-7.13-60.01-11.24-119.29-25-237.89-55.45-359.27-68.56-80.84-9.64-162.3-3.79-242.7,7-120.96,16.22-238.92,48.28-356.43,80.54-58.95,15.89-118.2,32.09-178.62,41.9-40.32,6.91-81.53,7.87-122.4,7.94-61.33,.25-123.11-4.54-182.77-19.4-39.65-9.58-78.29-22.25-117.85-31.78-39.36-9.66-79.26-16.94-119.46-22.2-29.89-4.02-60.35-5.04-90.09,.09-7.35,1.32-14.62,2.99-21.62,5.51-2.35,.86-4.7,1.85-6.65,3-.9,.45-1.81,.86-2.73,1.25"/>
  </g>
</svg>