<?xml version="1.0" encoding="UTF-8"?>
<svg id="Layer_2" data-name="Layer 2" xmlns="http://www.w3.org/2000/svg" viewBox="0 0 1920.22 134.11">
  <defs>
    <style>
      .cls-1 {
        fill: #4dbecd;
      }
    </style>
  </defs>
  <g id="ondas-HOME">
    <g id="linhas">
      <path class="cls-1" d="M0,44.05c19.9-4.92,39.94-9.26,60.12-12.88,20.18-3.4,40.66-6.76,61.21-5.81,33.32,.9,66.44,6.89,98.8,14.62,96.4,23.82,191.06,62.12,291.64,61.99,51.05,.58,101.75-9.4,149.65-26.82,57.81-20.82,113.41-48.58,173.65-62.36,70.25-16.88,143.84-15.67,214.88-4.43,50.7,8.02,100.6,21.48,149.68,36.3,75.88,23.07,150.82,49.14,228.55,65.16,18.39,3.84,37.88,7.26,56.47,9.98,105.07,15.43,212.08,5.39,315.92-14.57,40.17-7.76,80.09-17.08,119.42-28.48l.24,.76c-39.04,12.61-78.86,22.58-118.93,31.3-100.27,21.1-204.01,32.77-306.2,19.95-61.23-7.16-121.5-22.17-180.46-39.79-88.15-26.35-174.75-58.85-265.79-73.77-70.18-11.52-142.91-13.11-212.45,3.25-60.06,13.44-115.53,40.86-173.34,61.34-48.41,17.34-99.78,27.18-151.31,26.35-101-.39-195.68-39.45-292.15-63.95,0,0-7.46-1.79-7.46-1.79l-3.73-.9-3.74-.83-7.49-1.67c-34.9-7.08-70.83-12.76-106.47-8.92C60.2,31.48,30.05,37.75,.19,44.83,.19,44.83,0,44.05,0,44.05h0Z"/>
    </g>
  </g>
</svg>