<?xml version="1.0" encoding="UTF-8"?>
<svg id="Layer_2" data-name="Layer 2" xmlns="http://www.w3.org/2000/svg" viewBox="0 0 1920.17 105.85">
  <defs>
    <style>
      .cls-1 {
        fill: #4dbecd;
      }
    </style>
  </defs>
  <g id="ondas-HOME">
    <g id="linhas">
      <path class="cls-1" d="m0,34.88c29.92-5.7,60-10.74,90.35-13.58,30.4-2.83,61.06.02,91.24,3.97,107.73,15.55,212.31,53.15,321.95,54.25,32.83.62,65.76-1.69,98.11-7.29,60.15-9.97,117.07-32.48,175.65-48.79,39.26-10.91,79.54-18.55,120.22-21.57,14.96-1.18,30.83-1.81,45.84-1.84,55.92-.49,112.11,5.71,167.09,15.68,89.93,16.4,177.72,42.49,267.26,60.41,54.49,10.95,109.76,18.88,165.3,21.72,85.97,4.22,172.2-3.13,257.3-15.6,24.56-3.72,50.59-7.93,74.98-12.68,14.94-2.88,29.87-5.85,44.7-9.22,0,0,.19.78.19.78-19.68,5.03-39.51,9.46-59.41,13.5-79.43,16.27-160.65,27.42-241.76,30.52-81.43,3.27-163.11-4.89-242.9-21.02-104.54-20.41-206.37-53.46-311.89-68.73-47.38-6.96-95.7-10.2-143.57-8.69-47.98,1.63-95.62,9.32-141.9,22.05-39.15,10.63-77.47,24.18-116.68,34.82-44.18,12.16-89.84,19.47-135.7,20.13-15.11.28-30.72-.13-45.81-1.01-122.16-6.53-237.5-56.46-359.76-60.85-20.27-.8-40.48,1.66-60.56,4.17C40.13,28.69,20.09,31.95.15,35.67l-.15-.79h0Z"/>
    </g>
  </g>
</svg>