<?xml version="1.0" encoding="UTF-8"?>
<svg id="Layer_2" data-name="Layer 2" xmlns="http://www.w3.org/2000/svg" viewBox="0 0 1920.48 113.18">
  <defs>
    <style>
      .cls-1 {
        fill: #4dbecd;
      }
    </style>
  </defs>
  <g id="ondas-LIVRO">
    <path class="cls-1" d="M0,16.78s.03,0,.05-.01C136.54-17.64,251.35,5.38,382.71,45.44c73.22,21.63,147.1,42.76,223.44,48.98,51.97,4.46,104.64,2.97,156.59-1.03,112.73-8.55,223.92-30.59,336.33-42.3,23.98-2.43,48.62-4.19,72.77-4.58,56.75-.42,113.51,7.06,168.62,20.36,47.16,11.02,92.4,29.32,140.15,37.71,15.87,2.75,31.96,3.97,48.06,3.82,67.38,5.59,134.77-8.63,198.47-29.96,48.21-15.59,94.47-36.96,143.11-51.37,8.16-2.29,16.43-4.23,24.82-5.45,8.39-1.13,16.99-1.61,25.41-.06l-.18,.98v.02c-16.71-2.73-33.63,1.36-49.69,5.81-16.2,4.7-32.04,10.59-47.81,16.61-62.91,24.52-126.1,50.18-193.05,61.6-33.02,5.78-68.35,8.12-101.21,5.58-16.26,.28-32.57-.88-48.61-3.54-12.04-1.91-23.91-4.64-35.71-7.65-35.14-9.29-69.6-20.91-104.96-29.18-50.82-12.08-103.06-18.85-155.29-19.44-11-.1-25.06,.39-36.14,1.02-96.69,6.17-191.94,25.16-287.96,37.42-80.16,10.42-161.4,18.3-242.3,13.43-48.61-2.86-96.92-11.49-144.13-23.15-78.37-19.3-154.54-46.67-233.93-61.27-47.26-8.68-95.5-12.2-143.49-9.1-31.99,2-63.74,6.97-94.93,14.39L0,25.32"/>
  </g>
</svg>