<?xml version="1.0" encoding="UTF-8"?>
<svg id="Layer_2" data-name="Layer 2" xmlns="http://www.w3.org/2000/svg" viewBox="0 0 328.66 78.48">
  <defs>
    <style>
      .cls-1 {
        fill: #fff;
      }

      .cls-2 {
        fill: #009ca6;
      }
    </style>
  </defs>
  <g id="logo">
    <g id="texto">
      <g id="AB">
        <path class="cls-1" d="M152.82,63.64c.71-.06,1.42-.12,1.95-.17-.87-.85-1.9-1.81-2.88-2.81-.15-.16-.12-.5-.2-.9,.28,.09,.5,.09,.59,.2,1.63,1.82,3.84,2.15,6.08,2.51,4.95,.78,9.64,.07,14.1-2.22,2.51-1.29,4.62-3.11,5.45-5.79,.97-3.17,1.31-6.45-.7-9.54-1.86-2.86-4-5.39-6.82-7.36-1.27-.89-2.68-1.24-4.1-1.75-1.69-.6-3.34-1.04-5.09-.85-2.69,.3-5.28,.9-7.78,2.06-1.8,.83-3.79,1.23-5.75,1.83,1.15-1.08,2.28-2.13,3.41-3.19-.05-.07-.1-.14-.14-.21-.4,.17-.8,.34-1.19,.51-.03-.03-.05-.06-.08-.09,.69-.58,1.37-1.15,2.2-1.85-1.58-.8-3.22-.17-4.75-.56,.09-.33,.18-.66,.28-1,.5-.04,.99-.08,1.49-.11,0-.08,.02-.16,.03-.24-1.79-.25-3.57-.5-5.36-.74,0-.14-.02-.27-.03-.41,.39-.11,.79-.31,1.19-.33,3.41-.12,6.82-.18,10.23-.31,3.26-.12,6.85-3.6,6.53-6.67-.18-1.7-.48-3.67-1.92-4.91-1.41-1.22-3.11-1.99-5.02-2.15-.5-.04-1.01-.04-1.51-.05-3.37-.03-6.42,.97-9.21,2.87-2.3,1.56-4.66,3.02-7.1,4.6,2.92,3.07,3.25,7.66,5.56,11.55-.36-.13-.52-.19-.8-.29,.32,.6,.59,1.1,.87,1.64,.57-.66,.44-1.25,.16-2.03-.49-1.36-.75-2.8-1.11-4.2,.14-.04,.28-.08,.42-.13,.95,2.67,1.9,5.34,2.91,8.2,.03-.52,.06-.86,.09-1.37,.87,1.77,1.19,3.45,1.26,5.26,.05,1.37,.58,2.73,.92,4.09,.71,2.83,1.55,5.63,2.13,8.48,.56,2.77,.85,5.59,1.26,8.39,0,.04,.03,.08,.02,.11-.28,2.13-.23,4.23,.8,6.1-1.27,.63-1.32-.4-1.88-.89,.35,1.56,.7,3.11,1.06,4.67-.11,.05-.22,.11-.33,.16-.25-.29-.56-.54-.73-.86-2.46-4.52-3.61-9.52-5.09-14.39-.66-2.18-.89-4.56-1.9-6.55-1.35-2.66-1.32-5.62-2.46-8.31-.72-1.7-.78-3.69-1.14-5.55-.5-2.65-1.25-5.21-2.42-7.65-.86-1.79-1.91-3.55-1.9-5.63,0-1.07,.2-2.13,.34-3.44,.67,.61,1.16,1.06,1.69,1.54,.25-.3,1.22-.24,.9-1.29-.05-.17,.65-.56,1-.85-.07-.09-.14-.19-.21-.28-.35,.22-.71,.43-1.31,.8,1.35-2.18,2.91-3.81,4.92-4.88,2.04-1.09,4.18-2.03,6.35-2.84,1.23-.46,2.62-.52,4.2-.8-1.43-.38-2.5-.55-3.74-.05-1.55,.62-3.24,.87-4.87,1.29-.04-.11-.07-.23-.11-.35,1.87-.68,3.71-1.5,5.62-1.99,1.9-.48,3.89-.61,5.77-.89-.55-.11-1.2-.23-1.85-.36,5.14-.74,9.14,1.4,11.99,5.39,3.24,4.52,3.34,9.39,.14,14.33,3.88,.59,7.25,2.2,10.48,4.53,.03-.37,.04-.56,.06-.78,.11,.05,.21,.08,.3,.14,2.21,1.49,4.25,3.22,5.42,5.65,1.24,2.58,2.83,4.99,3.24,7.98,.56,4.06-.15,7.74-2.34,11.16-2.29,3.57-5.5,5.97-9.52,7.24-3.89,1.23-7.93,1.86-11.93,1.03-2.8-.58-5.43-1.96-8.14-2.98,.02-.15,.03-.3,.05-.45h0Z"/>
        <path class="cls-1" d="M131.72,10.22v2.05c1.22-1.02,2.53-2.13,3.85-3.23,.11,.1,.22,.2,.33,.29-.23,.4-.41,.85-.71,1.2-2.23,2.58-4.5,5.13-6.73,7.7-.16,.19-.3,.47-.31,.71-.09,2.43-.18,4.87-.2,7.3,0,.89,.22,1.78,.2,2.66-.02,1-.19,2-.31,3.09,1.15-.89,.92-1.93,.91-3.02-.02-1.2,.33-2.41,.52-3.61,.12,.01,.23,.02,.35,.04v8.03c.1,.01,.2,.03,.3,.04,.1-.23,.2-.46,.33-.76,.07,.14,.17,.23,.17,.32,0,1.47-.07,2.94,0,4.41,.09,2.06,.25,4.12,.43,6.18,.34,3.94,.72,7.88,1.07,11.82,.12,1.31,.23,2.63,.27,3.94,.02,.61-.19,1.22-.23,1.83-.04,.59-.08,1.19,0,1.76,.14,.97,.39,1.92,.65,3.15,.39,.32,1.04,.86,1.76,1.46-.33,.22-.59,.4-.95,.63-.21-.12-.63-.36-1.05-.6l-.13,.15c1.22,1.27,2.45,2.53,3.67,3.8-.07,.1-.14,.19-.2,.28-.31-.09-.68-.1-.93-.27-2.42-1.71-4.85-3.41-7.23-5.19-4.52-3.39-8.81-7.15-13.59-10.13-2.76-1.73-5.21-3.99-8.31-5.21-.84-.33-1.53-1.04-2.58-1.78-.49,1.78-.98,3.45-1.42,5.14-.45,1.74-.74,3.53-1.32,5.22-.31,.92-.38,2.69-2.16,1.51,.2-1.38,.42-2.89,.64-4.39-.11-.02-.21-.04-.31-.07-.22,1.12-.45,2.23-.73,3.66-.44-3.02-.28-5.67,.78-8.24,.53-1.29,1.03-2.59,1.5-3.89,.1-.28,.01-.62,.01-.93-.12-.04-.24-.07-.37-.1-.54,.77-1.07,1.54-1.75,2.52,.35-1.19,.63-2.16,.98-3.33-2.52-1.01-5.01-2.1-7.56-3-2.75-.97-5.67-1.54-7.85-3.71-.24-.24-.49-.46-.62-.93,1.08,.45,2.17,.91,3.25,1.36,.03-.06,.06-.11,.09-.17-.29-.21-.58-.42-1.1-.8,1.06,.29,1.87,.51,2.68,.73,.03-.1,.06-.2,.09-.3-.78-.3-1.57-.6-2.45-.94,5.62-.17,10.03,3.03,15.03,4.41-.03,.1-.06,.19-.09,.28,.07-.02,.17-.02,.21-.07,.11-.15,.2-.32,.27-.45-1.68-.87-3.34-1.73-5-2.59,.06-.13,.11-.27,.17-.4,.9,.3,1.82,.56,2.7,.92,.89,.35,1.74,.8,2.67,1.23,.4-.66,.78-1.28,1.29-2.11-.45,.17-.69,.25-.96,.35,.04-.12,.06-.23,.11-.32,1.08-1.87,2.16-3.67,4.03-4.98,1.01-.7,1.49-2.12,2.34-3.09,2.66-3.03,5.24-6.14,8.11-8.96,2.85-2.79,6.01-5.27,9.03-7.88,.21-.18,.43-.39,.67-.45,2.11-.5,3.47-2,4.83-3.53,.2-.23,.47-.4,.89-.75h0Zm-4.31,50.19c.12-.09,.24-.18,.36-.27-.02-.31,0-.62-.06-.92-.8-4.1-1.6-8.19-2.43-12.28-.23-1.13-.7-2.23-.78-3.36-.23-3.27-.42-6.56-.44-9.84-.01-2.21,.34-4.42,.45-6.64,.07-1.5,.01-3.01,.01-4.74-6.87,6.65-12.04,14.29-17.82,21.31,1.02,.93,1.78,1.79,2.7,2.42,1.56,1.07,3.29,1.9,4.82,3.01,2.95,2.14,5.88,4.31,8.67,6.64,1.65,1.38,3.01,3.09,4.51,4.65h0Z"/>
        <path class="cls-1" d="M106.28,21.55c.05,.47,.13,.93,.12,1.38,0,.19-.17,.43-.33,.55-.08,.06-.42-.04-.47-.16-.42-.8-.8-1.62-1.19-2.44-.73-1.53-.68-3.33-2.03-4.71-.87-.89-1.19-2.34-1.71-3.56-.47-1.1-1.17-1.85-2.38-2.18-1.78-.49-2.49-2-1.91-3.79,.59-1.79,2.4-2.77,4.02-2.17,1.58,.59,2.26,2.28,1.61,4.04-.02,.07-.03,.14-.04,.17,.56,.42,1.09,.83,1.64,1.24,.07-.01,.15-.02,.22-.03-.3-.63-.59-1.27-.89-1.91,.09-.09,.17-.19,.26-.28,.71,.57,1.43,1.14,2.2,1.76,.07-.13,.16-.3,.31-.56,.21,.24,.49,.43,.59,.68,.59,1.62,1.34,3.22,1.66,4.9,.33,1.71,.51,3.53-.39,5.21-.1,.18-.13,.44-.1,.65,.18,1.13,0,1.34-1.19,1.2h0Z"/>
      </g>
      <path class="cls-1" d="M315.34,61.01v-14.74c-2.25,.83-4.32,1.08-5.9,2.55-.18,.17-.49,.21-.73,.32-2.02,.87-4.04,1.74-6.05,2.63-1.41,.63-2.77,1.38-4.21,1.92-4.01,1.51-6.91,4.34-9.12,7.86-.72,1.14-.85,2.71-1.03,4.11-.16,1.3-1.15,4.07-2.04,5.07v-5.87c-.13-.01-.26-.02-.39-.03-.13,.88-.25,1.76-.38,2.64-.05,.01-.09,.03-.14,.04-.07-.41-.15-.82-.2-1.23-.37-3.09,.24-6.1,.73-9.13,.25-1.53,.31-3.09,.46-4.72,.14,.08,.29,.16,.53,.29v-2.33c-.62,.37-1.08,.65-1.17,1.55-.15,1.64-.57,3.25-.88,4.87-.16-.02-.32-.04-.48-.07,.06-.8,.05-1.61,.19-2.39,.36-2.03,.8-4.04,1.18-6.06,.04-.2-.13-.44-.21-.67-.21,0-.42,0-.64,0,.58-1.73,1.21-3.45,1.73-5.2,.57-1.91,1.09-3.84,1.54-5.78,1.31-5.55,3.01-10.97,5.24-16.22,.73-1.71,1.1-3.64,2.11-5.14,1.08-1.6,.88-2.8-.03-4.22-.34-.54-.5-1.19-.73-1.75,.89,.61,1.78,1.22,2.69,1.85,.29-.83,.5-1.44,.72-2.06,1.76-.14,.37,1.31,1.05,1.91,.66-1.89,1.29-3.7,1.92-5.5,.13,.03,.26,.07,.4,.1,0,.39,.05,.79,0,1.18-.25,1.57-.56,3.13-.79,4.7-.05,.34,.02,.82,.24,1.06,1.18,1.33,2.4,2.62,3.64,3.89,.84,.87,1.78,1.63,2.56,2.55,.63,.74,1.07,1.64,1.59,2.47,.16-.08,.32-.16,.48-.24-.31-.65-.53-1.36-.94-1.94-.82-1.19-1.75-2.31-2.5-3.55,2.59,1.67,3.94,4.44,6.05,6.91-.03-.54-.04-.74-.04-.94l.32-.12c3.16,5.93,6.27,11.89,7.63,18.69,.47-.05,.92-.11,1.37-.16,.31-.03,.63-.11,.93-.07,1.96,.2,3.91,.43,5.88,.65-.01,.46-.53,.86-1.55,1.19,.66,.16,1.26,.24,1.8,.45,.22,.09,.33,.45,.49,.7-.24,.12-.46,.31-.72,.36-2.36,.46-4.72,.91-7.08,1.35-.61,.11-.78,.44-.78,1.05,0,1.55,.04,3.12-.18,4.65-.18,1.23-.72,2.4-1.08,3.61-.12,.39-.21,.8-.23,1.21-.03,.88,0,1.77,0,2.71-.46-.05-.74-.08-1.05-.12-.09-.98-.17-1.94-.26-2.89-.33,2.09-.5,4.18-1.32,6.12-.21-.03-.42-.06-.62-.09h0Zm-19.81-13.11c6.31-2.55,12.08-5.56,18.85-6.95-3.88-8.92-7.29-17.88-14.61-24.84-.16,.44-.22,.58-.26,.72-.94,3.36-1.92,6.7-2.79,10.07-1.07,4.16-2.04,8.34-3.04,12.51-.29,1.21-.56,2.42-.85,3.62-.23,.94-.48,1.87-.75,2.8-.66,2.26-1.35,4.52-2.02,6.78-.02,.07,.06,.17,.06,.18,2.08-1.45,4.13-2.88,6.23-4.34-.22-.15-.36-.24-.82-.56h0Z"/>
      <path class="cls-1" d="M269.23,37.65c1.16,3.8,2.32,7.6,3.48,11.41,.12,0,.24,0,.35-.01,.5-2.74,1.1-5.46,1.49-8.22,.72-5.09,1.81-10.07,3.5-14.93,.41-1.17,.71-2.38,1.08-3.56,.18-.59,.26-1.29,.63-1.74,1.4-1.68,1.75-3.68,1.89-5.83,.41,.11,.69,.18,1.05,.27v1.64c.08,0,.15,.02,.23,.03,.42-1.78,.85-3.57,1.28-5.35,.1,0,.21,.02,.31,.03,.09,.19,.26,.39,.24,.57-.21,2.94-.24,5.91-.7,8.81-.8,5.01-2.19,9.95-2.71,14.99-.39,3.73-1.25,7.38-1.42,11.15-.11,2.42-.91,4.8-1.1,7.22-.19,2.37-.13,4.77,.06,7.14,.16,1.95,.86,3.86,.98,5.81,.09,1.41-.38,2.85-.6,4.28-.11,0-.22-.01-.34-.02-.13-1.37-.25-2.75-.38-4.12-.08,0-.15,0-.23,0-.08,.35-.17,.69-.28,1.17-.17-.63-.32-1.15-.46-1.67-.1,0-.2,.01-.3,.02,.04,.66,.08,1.31,.13,2.19-.35-.63-.59-1.08-.88-1.62-.84,2.5-.71,4.84,.21,7.17h-1.04c-.19-.37-.35-.7-.52-1.02-.09,.02-.18,.04-.27,.06,.17,1.63,.34,3.26,.51,4.89-.09,.03-.18,.06-.27,.08-.16-.18-.4-.35-.46-.56-.86-2.77-1.76-5.54-2.51-8.34-1.44-5.35-2.67-10.75-4.21-16.06-.91-3.15-2.3-6.16-3.38-9.26-.76-2.19-1.37-4.43-2.05-6.65-.17-.57-.37-1.13-.74-1.67-.32,2.66-1.11,5.27-.31,7.95,.11,.35,.02,.76,.01,1.15-.03,1.97-.06,3.95-.1,5.92-.03,1.39,.06,2.79-.12,4.16-.6,4.55,.88,8.73,1.99,13.01,.31,1.2-.18,2.6-.52,3.93-.03-1.4-.77-2.35-1.83-3.46,.04,.58,.07,.95,.1,1.32-.11,.04-.22,.09-.32,.13-.64-1.72-1.36-3.43-1.9-5.18-.36-1.18-.45-2.43-.66-3.65-.23-1.41-.46-2.83-.69-4.24-.1-.03-.2-.05-.3-.08-.1,.6-.3,1.19-.27,1.78,.06,1.31,.22,2.61,.23,3.93-1.33-2.35-.94-5.03-1.47-7.73-.24,.32-.38,.5-.55,.72-.1-.69-.34-1.37-.27-2.03,.68-7.03,0-14.2,2.3-21.05,.33-.99,.51-2.03,.65-3.07,.05-.37-.15-.81-.34-1.16-.97-1.78-2.31-3.39-2.48-5.53-.03-.42-.13-.83,.03-1.35,.46,.84,.92,1.68,1.42,2.57,.3-.38,.56-.71,.87-1.1,.65,.61,1.26,1.19,1.81,1.71,.43-.26,.83-.5,1.4-.85,.08,1.12,.13,1.89,.21,2.96,.44-2.11,.81-3.92,1.19-5.72,.17,.01,.33,.02,.49,.03,.04,.49,.11,.98,.1,1.47-.05,2.25-.13,4.49-.16,6.74,0,.32,.15,.68,.32,.97,.59,1.01,1.26,1.96,1.81,2.99,.34,.63,1.15,1.08,.78,2.07-.1,.25,.44,.75,.69,1.13,.14-.04,.28-.08,.43-.12-.14-.64-.18-1.31-.42-1.9-.57-1.37-1.24-2.71-1.87-4.06,.14-.07,.27-.14,.41-.22,.61,1.04,1.27,2.06,1.81,3.14,.67,1.35,1.22,2.76,1.86,4.13,.11,.24,.4,.39,.6,.59,.18-.1,.35-.2,.53-.31h0Z"/>
      <path class="cls-1" d="M199.62,66.99c-1.35-1.01-2.68-2.01-3.91-2.94,.06,.14,.24,.57,.53,1.26-2.95-3.31-4.92-6.89-5.89-10.86-1.23-5.04-2.03-10.19-3.01-15.29-.07-.38-.08-.77-.12-1.19,.18,.1,.32,.18,.58,.33-.08-1.39-.15-2.68-.22-3.97-.13-.02-.27-.03-.4-.05-.19,1.16-.6,2.32-.54,3.47,.17,3.32,.52,6.64,.71,9.97-1.07-3.04-1.58-6.2-1.48-9.4,.1-3.2,.53-6.39,.81-9.53-.01,.01-.18,.13-.33,.25-.01-.04-.06-.11-.05-.16,.98-4.37,3.13-8.02,6.95-10.46,1.71-1.09,3.56-2.12,5.49-2.69,3.32-1,6.31,.08,9.09,2.09,2.54,1.83,4.06,4.34,5.17,7.12,2.64,6.64,4.16,13.51,3.29,20.71-.6,5-2.1,9.73-5.16,13.79-.92,1.22-2.37,2.06-3.62,3.01-1.01,.77-2.03,1.56-3.15,2.13-1.04,.53-2.21,.79-3.33,1.18-.1-.19-.19-.37-.28-.56,.67-.45,1.35-.9,2.01-1.33-.93-.06-1.88-.03-2.78-.19-.88-.17-1.78-.48-1.97-1.66,.22,0,.36-.04,.43,0,2.15,1.37,3.92,.5,5.56-.98,4.57-4.13,6.76-9.31,7.05-15.43,.29-6.13-.69-12.02-3.17-17.59-.88-1.98-2.33-3.79-3.82-5.39-1.55-1.66-4.07-1.46-6.17,.12-2.91,2.19-5.11,4.9-5.81,8.56-.48,2.46-1.2,4.98-1.09,7.44,.24,5.18,.99,10.33,2.98,15.2,.62,1.5,1.02,3.1,1.68,4.58,1.28,2.85,2.63,5.67,3.97,8.49"/>
      <path class="cls-1" d="M249.64,74.91c-.51,.13-1.03,.26-1.54,.38,.83,.68,1.72,1.4,2.62,2.13-.26,.24-.34,.35-.37,.33-1.75-.69-3.53-1.3-5.22-2.1-2.52-1.19-4.93-2.6-7.46-3.74-1.71-.77-3.57-1.22-5.34-1.87-.9-.33-1.78-.74-2.6-1.24-2.59-1.58-5.45-1.26-8.26-1.19-.37,0-.73,.56-1.25,.99-.21-.59-.46-1.29-.75-2.09-.5,1.85-.97,3.6-1.45,5.36-.14-.01-.28-.03-.42-.04-.02-.45-.09-.89-.06-1.34,.42-7.14,2.05-14.11,3.15-21.15,.24-1.53,.5-3.08,.54-4.62,.09-4.24,.8-8.41,1.36-12.59,.28-2.07,.73-4.15,.72-6.23-.02-3.5-.22-7.02-.57-10.5-.23-2.27,.12-4.36,1.1-6.45v3.99l.36,.04c.05-.49,.1-.97,.19-1.81,.23,1.85,.42,3.36,.61,4.86,.11,0,.23-.02,.35-.03-.09-1.45-.18-2.91-.27-4.36,.1-.02,.2-.04,.3-.06,.41,2.03,.99,4.05,1.18,6.1,.25,2.81,.21,5.66,.29,8.49h-.39c.09,.73,.17,1.44,.26,2.15l.36,.09c.18-.77,.44-1.54,.51-2.32,.16-1.71,.22-3.44,.33-5.16,.13,0,.26,0,.39,.01v9.83c.24-.11,.4-.2,.59-.29,.17,1.96-.22,3.8-.72,5.7-.51,1.91-.47,3.96-.69,5.95-.57,5.22-1.59,10.35-3.25,15.33-.17,.51-.32,1.04-.46,1.56-.51,1.9-.8,3.89-2.53,5.6,.6-.12,.87-.21,1.14-.21,2.07,0,4.15,0,6.22,.09,.5,.02,.98,.45,1.74,.82-.25-1.04-.57-1.41-1.36-1.48-.69-.06-1.36-.36-2.03-.55,.04-.17,.07-.33,.11-.5,1.59,.28,3.19,.56,4.85,.85-.04-.21-.07-.4-.1-.59,.07-.1,.13-.19,.2-.28,.78,.48,1.52,1.01,2.34,1.41,.95,.47,1.95,.83,2.94,1.2,2.68,1.01,5.08,2.45,7.2,4.38,.6,.55,1.27,1.02,1.9,1.54,.24,.2,.57,.39,.65,.65,.41,1.32,1.32,2.1,2.64,2.49,0,.16,0,.31,0,.47h0Z"/>
      <path class="cls-1" d="M238.53,47.49c-1.87,1.14-.26,3.13-1.69,4.41v-6.57c-.26,.5-.39,.73-.51,.97-.12-.04-.24-.08-.37-.13,.31-1.03,.65-2.05,.92-3.09,.3-1.14,.61-2.29,.79-3.45,.55-3.6,1.77-6.96,3.58-10.11,.29-.5,.5-1.05,.77-1.57,.25-.48,.41-1.13,.81-1.38,1.32-.82,1.82-2.07,2.06-3.56,.41,.13,.7,.21,1.01,.31-.03,.36-.06,.69-.08,1.02,.07,.03,.14,.06,.21,.09,.56-1.1,1.12-2.19,1.82-3.55,.2,.53,.37,.75,.33,.92-.55,2.29-1.09,4.57-1.7,6.84-.77,2.92-1.95,5.78-2.29,8.74-.26,2.23-1.2,4.31-1.13,6.6,.03,1.08-.42,2.18-.74,3.25-.74,2.48-.75,4.94-.21,7.49,.38,1.8,.71,3.72-.94,5.48v-2.81c-.08,0-.16,0-.24-.01-.08,.3-.15,.6-.26,1.01-.16-.56-.28-1.03-.41-1.49h-.22v1.2l-.43,.1c-.38-1.39-.84-2.76-1.09-4.17-.21-1.17-.2-2.39-.21-3.59,0-.92,.13-1.85,.22-2.96h0Z"/>
      <path class="cls-1" d="M242.89,4.78c2-2.25,4.22-1.69,6.48-.88,.03-.22,.05-.4,.08-.58,.08,0,.17-.02,.23,0,1.56,.68,2.47,1.86,2.61,3.55,.11,1.28,.31,2.59,.13,3.84-.4,2.7-2.81,4.63-5.42,4.42-.77-.06-1.64-.35-2.23-.83-1.85-1.49-1.5-2.3,.38-3.39,.67-.39,1.09-1.19,1.62-1.81-.09-.11-.18-.23-.27-.34-.7,.27-1.39,.62-2.12,.77-.28,.06-.81-.24-.95-.52-.25-.52-.58-1.26-.39-1.69,.6-1.39,1.63-2.45,3.24-2.73,.8-.14,1.6-.29,2.65-.48-2.21-.72-4.01,.32-6.05,.66h0Z"/>
    </g>
    <g id="caravela">
      <g>
        <path class="cls-1" d="M11.79,56.6c.1-.03,.22-.03,.26-.08,.43-.66,.86-1.32,1.25-2.01,.2-.35,.5-.79,.42-1.12-.21-.92,.5-1.44,.79-2.13,.33-.78,.82-1.51,1.29-2.22,1.4-2.11,2.84-4.2,4.26-6.3,.59-.87,1.14-1.77,1.74-2.63,.17-.25,.51-.38,.7-.62,.23-.29,.39-.64,.58-.96,.08-.13,.14-.27,.21-.4-.05-.04-.09-.08-.14-.13-.32,.3-.69,.55-.95,.9-.94,1.26-1.84,2.55-2.76,3.82-.15,.2-.33,.37-.6,.49,.58-.86,1.13-1.75,1.73-2.59,1.08-1.51,2.2-3,3.29-4.5,.12-.16,.46-.33,.12-.61-.02-.01,.09-.21,.16-.31,.99-1.31,1.97-2.63,2.99-3.92,1.17-1.48,2.37-2.93,3.56-4.38,3.4-4.14,6.77-8.31,10.23-12.4,1.95-2.31,4.03-4.51,6.09-6.72,.59-.64,1.37-1.09,1.98-1.71,.67-.68,1.25-1.45,1.84-2.21,.07-.09,.02-.31,0-.46-.09-.45-.2-.9-.18-1.4,.2,.4,.41,.81,.61,1.21,.26-.28,.51-.54,.83-.88,.03,.43,.04,.71,.07,1.13,1.1-1.22,2.1-2.35,3.11-3.47,.06,.05,.11,.09,.17,.14-.38,.51-.76,1.03-1.15,1.54-.49,.64-1,1.26-1.47,1.91-.09,.13-.12,.41-.04,.53,1.2,1.76,1.65,3.86,2.56,5.75,.14,.29,.1,.67,.16,1.01,.02,.11,.11,.21,.17,.31,.06,0,.11-.01,.17-.02-.02-.35,.01-.71-.08-1.05-.22-.82-.49-1.63-.75-2.44,.05-.02,.11-.04,.16-.07,.11,.23,.23,.46,.34,.7,.11,.25,.22,.49,.29,.75,.27,.98,.52,1.97,.79,2.94,.04,.13,.02,.56,.44,.15,.57,2.83,.64,5.67,.75,8.5,.11,2.83-.36,5.6-1.01,8.36,.25-.32,.88-.34,.65-.99-.04-.11,.35-.45,.59-.55,.36-.14,.62-.35,.92-.59,.8-.64,1.62-1.27,2.52-1.76,.93-.51,1.95-.86,2.93-1.28,.1-.04,.21-.09,.31-.07,.52,.1,.97,.02,1.35-.37,.05-.05,.29-.03,.3,0,.05,.15,.05,.33,.08,.56,.4-.16,.82-.32,1.25-.49,.04,.06,.08,.12,.13,.19-.78,.65-1.55,1.3-2.37,1.98,.1,.22,.23,.53,.37,.83,.66,1.44,.51,3.05,.93,4.55,.09,.32-.07,.72-.12,1.16,.63-.27,.52-.68,.48-1.08-.06-.56-.07-1.12-.1-1.68l.28-.02c.09,1.36,.18,2.73,.28,4.23,.09-.23,.14-.35,.18-.47,.05,0,.1,0,.15,.01-.05,.58-.08,1.16-.16,1.73-.12,.86-.3,1.71-.39,2.57-.25,2.42-.86,4.74-1.88,6.94-.23,.49-.38,1.01-.64,1.47-.21,.38-.54,.69-.8,1.04-.12,.16-.25,.34-.31,.53-.13,.36-.22,.74-.33,1.12-.18-.06-.3-.1-.42-.14,.02-.21,.05-.39,.07-.58-.05-.02-.09-.03-.14-.05-.31,.65-.63,1.31-.94,1.96,.02,.03,.04,.07,.07,.1,.46-.25,.93-.5,1.41-.76,.07,.14,.12,.26,.17,.38-.2,.17-.39,.33-.59,.49,.03,.05,.06,.1,.09,.14,.77-.4,1.54-.8,2.31-1.2,.03,.03,.06,.06,.1,.09-.12,.14-.23,.31-.37,.43-1.53,1.3-3.25,2.23-5.23,2.68-1.67,.38-3.36,.73-4.95,1.33-1.42,.53-2.91,.53-4.35,.88-1,.25-2.1,.07-3.15,.19-1.41,.16-2.8,.45-4.2,.64-.8,.11-1.59,.41-2.41,.11-.12-.04-.29,0-.41,.06-1.49,.69-3.09,.79-4.68,.99-2.24,.29-4.5,.56-6.72,.99-2.5,.49-5.01,.52-7.53,.5-1.77-.01-3.54-.08-5.31-.09-1.56,0-3.09-.05-4.41-1.14h0ZM43.98,20.41c-.46,.14-.9,.27-1.42,.43,.11-.16,.17-.26,.27-.41-.46,.13-.86,.23-1.37,.37,.21,.19,.31,.35,.46,.42,.98,.5,1.94,1.07,3.11,.95,.24-.03,.5,.02,.74,.08,.11,.03,.28,.17,.28,.26,.03,.55,.01,1.11,.01,1.66-.06,0-.13,0-.19,.01-.07-.3-.14-.6-.22-.92-.13,.02-.25,.05-.39,.07,.03,.41,.07,.78,.08,1.16,0,.23-.05,.47-.11,.7-.14,.55-.37,1.08-.44,1.63-.23,1.73-.4,3.47-.6,5.22-1.12,.08-2.21,.16-3.31,.24,0,.04,0,.09,.02,.13,.09,.03,.18,.06,.28,.09v.1c-.86,.17-1.72,.34-2.58,.51,0,.06,.02,.12,.03,.18,.57-.06,1.13-.12,1.67-.18,.07,.11,.16,.24,.29,.43-.89,.14-1.73,.27-2.57,.39-.08,.01-.16-.03-.23-.05,.02-.23,.04-.42,.06-.61-.06-.03-.12-.05-.17-.08-.13,.21-.25,.42-.41,.69-.06-.16-.17-.31-.16-.43,.05-.4-.14-.55-.48-.62-.14-.03-.29-.08-.39-.18-.48-.46-.83-.21-1.13,.2-.1,.13-.16,.32-.18,.48-.1,.7-.22,1.41-.25,2.11-.01,.38,.09,.8,.26,1.14,.11,.22,.42,.42,.67,.48,.67,.15,.99-.38,1.3-.83,.34-.49,.73-.81,1.34-.86,.53-.05,1.05-.2,1.58-.21,1.35-.03,2.7-.01,4.03-.01,0,.52-.04,.99,0,1.44,.1,.94,.51,1.85,.34,2.83-.05,.26,0,.53,0,.81,.11-.04,.2-.08,.39-.15-.24,.84,.45,1.54,.11,2.43-.09-.48-.17-.85-.22-1.09-.29,1.43-.6,2.94-.89,4.4-.51-.02-.94-.04-1.37-.06,0,.03,0,.07,0,.1,.09,.06,.17,.12,.33,.24-.99,.18-1.88,.34-2.77,.49,0,.07,.02,.14,.02,.2,.22,0,.45,.05,.65-.01,.48-.16,.92-.24,1.29,.15-.29,.14-.6,.3-.92,.45,.08,.19,.14,.3,.19,.41,.32,.85,.4,.9,1.3,.88,.86-.02,1.72,0,2.57-.11,.36-.04,.71-.28,1.02-.5,.21-.15,.22-.37-.07-.55-.7-.43-1.02-1.25-.83-2.09,.18-.82,.38-1.64,.56-2.46,.51-2.27,1.07-4.52,1.01-6.88-.01-.45,.13-.9,.2-1.4,1.42,.15,2.75,.3,4.08,.44-.04,.72,0,.76,.73,1.18,.5,.28,.89,.08,.9-.49,.02-.91,.04-1.83,.02-2.74,0-.33-.11-.67-.19-1-.09-.35-.32-.35-.56-.15-.37,.31-.81,.59-.68,1.19,.02,.08-.01,.18-.05,.26-.07,.13-.15,.29-.27,.36-.06,.03-.22-.13-.34-.2-.34-.21-.65-.49-1.02-.61-.86-.28-1.74-.49-2.59-.72,0-.26,0-.48,0-.69,.02-2.18,.06-4.36,.03-6.54,0-.65-.23-1.3-.31-1.95-.1-.77,.17-1.25,.85-1.62,.14-.08,.32-.22,.33-.35,.11-.76-.65-1.47-1.42-1.38-.31,.04-.63,.06-.94,.1-.01-.09-.02-.18-.03-.26,.29-.04,.57-.07,.86-.11v-.06h-1.68c.14,.11,.21,.17,.36,.28-1.22,.12-2.35,.23-3.48,.34,0,.05,.01,.1,.02,.15,.83,.41,1.8-.49,2.61,.3h0Zm18.34,20.95c-.67-.21-1.3-.43-1.94-.59-.33-.08-.4-.2-.41-.54-.02-1.48-.08-2.96-.16-4.44-.02-.39,.09-.68,.43-.84,.3-.14,.28-.32,.17-.56-.16-.37-.42-.5-.82-.41-.13,.03-.29-.01-.42-.05-.08-.02-.16-.16-.23-.15-.49,.08-.99,.18-1.48,.27-.15,.03-.3,.06-.45,.09,0,.04,.02,.08,.03,.13h1.18v.16c-.41,.04-.81,.07-1.22,.11,.54,.48,1.11,.76,1.79,.77,.85,.01,.93,.12,.67,.97-.07-.13-.13-.26-.27-.53-.04,.49-.05,.83-.1,1.16-.06,.35-.2,.68-.25,1.02-.13,.86-.24,1.73-.35,2.53-1.03,.21-2.03,.41-3.02,.6,0,.05,.01,.1,.02,.15h.83c-.78,.44-1.43,.41-1.64,0-.08,.09-.14,.17-.27,.34,0-.67-.51-.68-.86-.75-.12-.02-.41,.47-.51,.76-.1,.29-.11,.65-.04,.95,.06,.26,.24,.63,.44,.68,.21,.06,.52-.17,.77-.32,.22-.13,.39-.43,.62-.48,1.15-.26,2.31-.26,3.39-.17,.21,1.28,.4,2.49,.6,3.7-.05-.05-.11-.1-.16-.15-.18,.73-.36,1.43-.51,2.05-.75,.18-1.42,.34-2.09,.5l.02,.1c.29-.02,.58-.04,.87-.05,0,.04,.02,.09,.02,.13-.12,.08-.24,.17-.43,.29,.15,.21,.28,.56,.43,.56,.76,.02,1.53-.02,2.29-.08,.12,0,.23-.19,.39-.32-.78-.43-.72-1.01-.54-1.69,.27-1.02,.48-2.05,.66-3.09,.12-.7,.15-1.41,.22-2.2,.76,.09,1.44,.16,2.13,.25,.09,.01,.15,.18,.25,.24,.24,.15,.49,.28,.74,.42,.07-.2,.19-.39,.21-.6,.04-.34,.05-.68,.02-1.02-.02-.28-.11-.56-.17-.84-.08-.02-.16-.03-.23-.05-.21,.35-.42,.7-.57,.97h0Zm-18.85-2.13h.1c.05-.19,.09-.38,.14-.57,.05,0,.1,.01,.15,.02-.09,1.3-.18,2.6-.27,3.9,.06,0,.12,0,.18,0,.48-1.6,.08-3.18-.06-4.77-.05,0-.09,0-.14,0-.04,.48-.07,.95-.11,1.43h0Z"/>
        <path class="cls-1" d="M15.07,57.99c1.45,.4,2.91,.81,4.44,1.23-.05-.2-.07-.29-.11-.48,5.29,1.64,10.77,1.93,16.16,2.93-.06-.42-.09-.69-.16-.96-.04-.16-.14-.31-.21-.46-.1,.1-.2,.21-.41,.43-.04-.37-.07-.63-.1-.94h-.38c.23-.15,.38-.19,.44-.28,.59-.9,1.58-1.13,2.44-1.62,.49-.28,1.13,.06,1.45-.53,.84,.13,1.55-.37,2.32-.45,.3-.03,.59-.11,.96-.12-.3-.36-.56-.42-.94-.29-.35,.11-.73,.11-1.11,.09,.78-.59,1.74-.42,2.65-.69-.07-.09-.13-.15-.2-.24,.18-.04,.36-.14,.54-.12,2.21,.21,4.45-.08,6.63,.53,.74,.21,1.48,.41,2.21,.62,.15,.04,.35,.07,.44,.17,.47,.52,1.08,.68,1.75,.62,0,.3-.25,.51-.73,.64,.43,.1,.86,.19,1.23,.28,.08-.58,.15-1.15,.23-1.71,.07,0,.14,0,.21,.01,.05,.49,.11,.98,.16,1.46h.08c.04-.17,.08-.35,.12-.51,.13-.05,.28-.1,.47-.16,.34,.49,.69,1.06,.61,1.79,0,.05,0,.11,0,.16,.05,.68,.1,1.35,.15,2.01,.1-.06,.25-.15,.35-.21,.03-.51,.07-1.01,.1-1.51h.21v2.4h.33c-.78,2.72-1.64,5.35-3.98,7.19,.03,.04,.06,.08,.09,.12,.38-.09,.77-.16,1.15-.27,1.97-.56,3.94-1.14,5.96-1.53,1.16-.23,2.29-.85,3.22-1.71,1.04-.97,2.13-1.9,3.2-2.85,.47-.42,.93-.84,1.36-1.29,.67-.71,1.3-1.45,1.95-2.18-.04-.05-.09-.11-.13-.16-.3,.24-.66,.44-.89,.73-.51,.65-1.04,1.27-1.88,1.57,.27-.31,.54-.62,.81-.94,.6-.71,1.2-1.42,1.79-2.14,.1-.12,.38-.32,.02-.5-.02,0,.02-.15,.06-.22,.31-.62,.65-1.23,.94-1.86,.16-.35,.25-.73,.35-1.1,.08-.29-.07-.45-.36-.55-.88-.3-1.76-.25-2.65-.11-1.79,.28-3.49,.83-4.88,2.02-.8,.68-1.49,1.5-2.12,2.33-.21,.28-.15,.81-.11,1.22,.05,.49,.21,.97,.32,1.46-.11,.02-.23,.05-.39,.09-.13-.27-.26-.57-.4-.86-.06,.02-.11,.04-.17,.05,.15,.44,.25,.91,.47,1.32,.24,.43,.55,.84,.9,1.19,.35,.34,.79,.6,1.19,.89-.02,.05-.04,.1-.05,.15-.32-.13-.67-.21-.96-.39-1.98-1.28-3.44-4.56-1.46-7.37,1.79-2.56,4.25-4.15,7.35-4.63,.89-.14,1.8-.12,2.71-.15,2.87-.1,3.84,2.59,3.28,4.56-.49,1.72-1.41,3.17-2.54,4.53-1.29,1.54-2.84,2.8-4.23,4.22-.07,.07-.12,.16-.12,.36,.54-.24,1.08-.49,1.62-.73,.02,.04,.05,.08,.07,.11-.24,.2-.46,.43-.73,.59-2.96,1.69-5.85,3.54-9.09,4.69-5.72,2.03-11.57,3.47-17.63,3.94-.86,.07-1.73,.06-2.57,.22-2.93,.56-5.84,.05-8.75-.08-4.12-.18-8.06-1.26-12.03-2.31-2.76-.73-5.5-1.71-8.43-1.7-1.38,0-2.77-.12-4.13,.06-1.72,.23-3.41,.72-5.12,1.1-.12,.03-.23,.07-.38,.03,.22-.12,.44-.25,.67-.37,.96-.5,1.92-1,2.9-1.57-.3,.06-.61,.11-.91,.17l-.03-.08c.49-.18,.98-.39,1.49-.53,.55-.15,1.11-.26,1.67-.36,.54-.09,1.09-.14,1.75-.22-1.34-1.43-1.04-3.17-1.11-4.83,0,0,.15-.01,.25-.02-.03-.26-.07-.52-.1-.81-.36,.15-.46,.36-.47,.75-.01,.62-.16,1.23-.25,1.84-.06,0-.11,0-.17,0,.03-.72,.06-1.44,.1-2.16,.02-.32,.1-.64,.11-.96,0-.17,.27-.52-.23-.48,0,0-.06-.16-.05-.24,.04-.32,.07-.64,.14-.95,.19-.85,.43-1.69,.61-2.55,.32-1.55,.55-3.12,.93-4.65,.26-1.03,.71-2.02,1.11-3.01,.13-.32,.35-.61,.59-1.01-.3-.06-.58-.12-.85-.17-.05-.05-.11-.1-.16-.15,.13-.05,.26-.16,.38-.14,.72,.09,1.02-.34,1.25-.95,.11,.02,.25,.04,.4,.06v.53s.07,.02,.11,.03c.26-.6,.52-1.2,.79-1.81,.07,.02,.13,.03,.2,.05-.04,.27-.05,.56-.13,.82-.14,.4-.06,.65,.46,.82-.2,.41-.37,.81-.59,1.18-.49,.82-.67,1.68-.32,2.6,.04,.1,.14,.18,.26,.33,.06-.28,.11-.45,.15-.62,.07,0,.14,0,.2,0,.02,.33,.04,.66,.06,1.01h.42c-.75,1.26-1.46,2.46-2.17,3.65,2.47,.82,4.65,2.43,7.31,2.86-.29,.02-.59,.03-.88,.05,0,.04,0,.09,0,.13,.7,.03,1.4,.07,2.11,.1-.12-.43-.42-.56-.8-.62-.77-.13-1.53-.31-2.11-.93h0Z"/>
      </g>
      <g>
        <path class="cls-2" d="M43.98,20.41c-.82-.79-1.78,.11-2.61-.3,0-.05-.01-.1-.02-.15,1.13-.11,2.26-.22,3.48-.34-.15-.12-.22-.18-.36-.28h1.68v.06c-.29,.04-.57,.07-.86,.11,.01,.09,.02,.18,.03,.26,.31-.03,.63-.06,.94-.1,.77-.09,1.53,.63,1.42,1.38-.02,.13-.2,.28-.33,.35-.67,.37-.95,.84-.85,1.62,.09,.65,.31,1.3,.31,1.95,.03,2.18-.01,4.36-.03,6.54,0,.21,0,.43,0,.69,.86,.23,1.74,.44,2.59,.72,.37,.12,.68,.4,1.02,.61,.12,.07,.28,.23,.34,.2,.12-.06,.2-.23,.27-.36,.04-.07,.07-.18,.05-.26-.13-.6,.31-.88,.68-1.19,.24-.2,.47-.2,.56,.15,.09,.33,.18,.66,.19,1,.02,.91,0,1.83-.02,2.74-.01,.57-.4,.77-.9,.49-.74-.42-.77-.46-.73-1.18-1.33-.14-2.66-.29-4.08-.44-.08,.5-.21,.95-.2,1.4,.06,2.35-.5,4.61-1.01,6.88-.18,.82-.38,1.64-.56,2.46-.18,.83,.13,1.65,.83,2.09,.29,.18,.29,.4,.07,.55-.31,.22-.66,.46-1.02,.5-.85,.1-1.71,.08-2.57,.11-.91,.02-.98-.03-1.3-.88-.04-.12-.1-.22-.19-.41,.32-.15,.63-.31,.92-.45-.37-.39-.82-.31-1.29-.15-.2,.06-.43,.01-.65,.01,0-.07-.02-.14-.02-.2,.89-.16,1.78-.32,2.77-.49-.16-.12-.25-.18-.33-.24,0-.03,0-.07,0-.1,.43,.02,.86,.04,1.37,.06,.3-1.46,.6-2.97,.89-4.4,.05,.24,.12,.61,.22,1.09,.34-.89-.35-1.59-.11-2.43-.19,.07-.28,.11-.39,.15,0-.28-.04-.55,0-.81,.17-.98-.24-1.88-.34-2.83-.05-.45,0-.92,0-1.44-1.33,0-2.68-.02-4.03,.01-.53,.01-1.05,.16-1.58,.21-.61,.05-1.01,.38-1.34,.86-.31,.45-.63,.99-1.3,.83-.25-.06-.56-.26-.67-.48-.17-.34-.28-.76-.26-1.14,.02-.71,.15-1.41,.25-2.11,.02-.17,.09-.35,.18-.48,.3-.41,.65-.66,1.13-.2,.1,.09,.25,.14,.39,.18,.34,.08,.54,.23,.48,.62-.02,.13,.09,.27,.16,.43,.16-.27,.28-.48,.41-.69,.06,.03,.12,.05,.17,.08-.02,.19-.03,.38-.06,.61,.07,.02,.16,.06,.23,.05,.84-.12,1.67-.25,2.57-.39-.13-.19-.22-.32-.29-.43-.54,.06-1.11,.12-1.67,.18,0-.06-.02-.12-.03-.18,.86-.17,1.72-.34,2.58-.51v-.1c-.09-.03-.18-.06-.28-.09,0-.04,0-.09-.02-.13,1.1-.08,2.19-.16,3.31-.24,.2-1.75,.37-3.49,.6-5.22,.07-.55,.3-1.09,.44-1.63,.06-.23,.11-.46,.11-.7,0-.37-.05-.75-.08-1.16,.14-.03,.26-.05,.39-.07,.08,.33,.15,.62,.22,.92,.06,0,.13,0,.19-.01,0-.55,.01-1.11-.01-1.66,0-.09-.17-.23-.28-.26-.24-.06-.5-.11-.74-.08-1.17,.12-2.13-.45-3.11-.95-.15-.07-.25-.23-.46-.42,.5-.14,.9-.25,1.37-.37-.1,.15-.16,.24-.27,.41,.52-.16,.97-.29,1.42-.43h0Z"/>
        <path class="cls-2" d="M62.32,41.37c.16-.26,.36-.62,.57-.97,.08,.02,.16,.03,.23,.05,.06,.28,.15,.55,.17,.84,.03,.34,.02,.68-.02,1.02-.02,.2-.14,.4-.21,.6-.25-.14-.5-.27-.74-.42-.1-.06-.16-.23-.25-.24-.68-.1-1.37-.17-2.13-.25-.08,.79-.1,1.51-.22,2.2-.18,1.04-.39,2.08-.66,3.09-.18,.68-.24,1.27,.54,1.69-.16,.14-.27,.31-.39,.32-.76,.06-1.53,.11-2.29,.08-.14,0-.27-.35-.43-.56,.19-.13,.31-.21,.43-.29,0-.04-.02-.09-.02-.13-.29,.02-.58,.04-.87,.05l-.02-.1c.67-.16,1.34-.32,2.09-.5,.15-.62,.33-1.32,.51-2.05,.05,.05,.11,.11,.16,.15-.2-1.21-.39-2.42-.6-3.7-1.08-.09-2.25-.09-3.39,.17-.23,.05-.39,.34-.62,.48-.24,.15-.55,.38-.77,.32-.2-.06-.38-.42-.44-.68-.07-.3-.05-.66,.04-.95,.1-.29,.39-.79,.51-.76,.35,.07,.86,.08,.86,.75,.13-.16,.2-.24,.27-.34,.21,.42,.86,.44,1.64,0h-.83c0-.05-.01-.1-.02-.15,.99-.2,1.98-.4,3.02-.6,.11-.8,.21-1.66,.35-2.53,.05-.35,.19-.68,.25-1.02,.06-.33,.06-.67,.1-1.16,.14,.27,.21,.4,.27,.53,.26-.85,.18-.96-.67-.97-.68,0-1.25-.29-1.79-.77,.41-.04,.81-.07,1.22-.11v-.16h-1.18s-.02-.08-.03-.13c.15-.03,.3-.06,.45-.09,.49-.09,.98-.19,1.48-.27,.07-.01,.14,.12,.23,.15,.14,.04,.29,.08,.42,.05,.4-.09,.66,.04,.82,.41,.11,.25,.13,.42-.17,.56-.34,.16-.45,.45-.43,.84,.08,1.48,.14,2.96,.16,4.44,0,.34,.08,.46,.41,.54,.64,.16,1.27,.38,1.94,.59h0Z"/>
        <path class="cls-2" d="M43.47,39.23c.04-.48,.07-.95,.11-1.43,.05,0,.09,0,.14,0,.14,1.59,.54,3.18,.06,4.77-.06,0-.12,0-.18,0,.09-1.3,.18-2.6,.27-3.9-.05,0-.1-.01-.15-.02-.05,.19-.09,.39-.14,.58h-.1s0,0,0,0Z"/>
      </g>
    </g>
  </g>
</svg>