<?xml version="1.0" encoding="UTF-8"?>
<svg id="Layer_2" data-name="Layer 2" xmlns="http://www.w3.org/2000/svg" viewBox="0 0 1920.07 440.48">
  <defs>
    <style>
      .cls-1 {
        fill: #fff;
      }

      .cls-2 {
        fill: #4dbecd;
      }

      .cls-3 {
        fill: #009ca6;
      }
    </style>
  </defs>
  <g id="ondas-SOBRE">
    <path class="cls-2" d="M1920,136.47c-232.79,28.22-483.74,176.97-651.42,149.39C723.37,196.2,409.25,22.52,0,0V440.48l1920-1.21V136.47Z"/>
    <path class="cls-3" d="M0,142.49c387-20.79,807.37,119.97,1201.91,117.15,374.27-2.67,604.4-56.27,718.09-47.83,0,30.71,0,227.49,0,227.46L0,440.48S0,170.79,0,142.49Z"/>
    <path class="cls-1" d="M1920,214.98c-17.22-.99-40.25-.61-59.58,.66-57.64,3.67-121.95,12.05-179.75,18.43-199.74,22.47-401.57,37.5-602.58,26.1C717.66,238.21,361.54,125.96,.46,142.47H.46c403.33-24.23,795.81,116.37,1198.4,112.86,160.69-1.35,321.06-13.66,480.8-30.62,39.98-4.18,79.95-8.55,120.06-12.13,40-3.38,80.12-6.77,120.35-3.9"/>
  </g>
</svg>